<svg xmlns="http://www.w3.org/2000/svg" xmlns:xlink="http://www.w3.org/1999/xlink" width="300" height="300" viewBox="0 0 300 300">
  <metadata><?xpacket begin="﻿" id="W5M0MpCehiHzreSzNTczkc9d"?>
<x:xmpmeta xmlns:x="adobe:ns:meta/" x:xmptk="Adobe XMP Core 5.6-c142 79.160924, 2017/07/13-01:06:39        ">
   <rdf:RDF xmlns:rdf="http://www.w3.org/1999/02/22-rdf-syntax-ns#">
      <rdf:Description rdf:about=""/>
   </rdf:RDF>
</x:xmpmeta>
                                                                                                    
                                                                                                    
                                                                                                    
                                                                                                    
                                                                                                    
                                                                                                    
                                                                                                    
                                                                                                    
                                                                                                    
                                                                                                    
                                                                                                    
                                                                                                    
                                                                                                    
                                                                                                    
                                                                                                    
                                                                                                    
                                                                                                    
                                                                                                    
                                                                                                    
                                                                                                    
                           
<?xpacket end="w"?></metadata>
<defs>
    <style>
      .cls-1 {
        fill: #fff;
        fill-rule: evenodd;
        filter: url(#filter);
      }
    </style>
    <filter id="filter" x="5.969" y="32.063" width="288" height="234.906" filterUnits="userSpaceOnUse">
      <feFlood result="flood" flood-color="#e2d163"/>
      <feComposite result="composite" operator="in" in2="SourceGraphic"/>
      <feBlend result="blend" in2="SourceGraphic"/>
    </filter>
  </defs>
  <path id="ChestPiece_copy_2" data-name="ChestPiece copy 2" class="cls-1" d="M141.843,199.127l10.436,67.839,118.637-75.127,18.125-59.99-25,14.015s-0.945,35.021-2.166,35.582c-8.57,3.926-61.846,31.429-61.846,31.429s-15.811-5.7-15.193-5.283-2.828-27.006-2.828-27.006Zm-32.955.56,15.928,66.157L39.685,205.855,13.87,145.3ZM144.48,162.8l-0.659-7.961S119,123.552,114.382,111.106c-25.046-55.841-57.671-59.99-57.671-59.99L229.173,32.054s26.253,5.046,35.151,30.274c8.569,9.084,29.659,34.2,29.659,34.2l-1.1,9.532-29.577,8.511c-2.227-22.491-60.34-54.536-79.688,28.673C185.886,142.193,144.48,162.8,144.48,162.8ZM5.961,124.562V116.15C18.814,95.968,21.12,75.111,28.041,74.775c2.306-2.017,7.908-4.709,19.112.673,1.978,0.672,17.466,5.718,43.5,64.25,3.3,5.383,17.135,26.911,17.135,26.911v9.083ZM205.84,196.716l-7.981-4.3s0.034-55.52.034-59.017c13.218-29.315,29.039-35.04,29.039-35.04l13.433,1.229s0.092,0.065.264,0.189c1.583,1.149,9.839,7.414,12.989,15.18,0,8.874-.463,58.4-0.463,58.4Zm6.28-1.262-7.3-3.937s0.032-50.8.032-54c12.1-26.825,26.571-32.063,26.571-32.063l12.291,1.125s0.086,0.059.241,0.172c1.448,1.053,9,6.784,11.886,13.89,0,8.121-.422,53.438-0.422,53.438Zm4.588-.05-6.825-3.679s0.031-47.479.031-50.468c11.305-25.069,24.833-29.966,24.833-29.966l11.487,1.052,0.225,0.162c1.353,0.982,8.414,6.34,11.108,12.981,0,7.589-.4,49.942-0.4,49.942Zm21.711-67.758c3.932,0,4.91,4.773,4.91,11.279,0,4.171-.329,8.339-2.306,10.432-1.108,1.171.771,24.909-.641,24.909l-6.628,3.509c-0.957,0,1.569-26.881.737-27.445-2.6-1.759-3.931-5.979-3.931-10.9C230.56,132.92,234.485,127.646,238.419,127.646Z"/>
</svg>
